<svg width="166" height="299" viewBox="0 0 166 299" fill="none" xmlns="http://www.w3.org/2000/svg">
<g clip-path="url(#clip0_227_49)">
<path d="M16.133 236.674C24.7918 247.372 32.0394 256.132 32.2125 256.165C32.473 256.173 32.5361 255.901 32.4029 255.293C32.2443 254.492 32.4733 254.637 35.836 257.513C37.8308 259.222 39.452 260.782 39.4478 261.001C39.4368 261.577 45.5514 267.476 48.4062 269.651C51.9468 272.314 54.7009 273.69 56.9849 273.899C59.2399 274.107 60.1145 273.805 61.2415 272.414C62.8141 270.433 63.7533 266.731 64.249 260.464L64.5167 257.043L66.3227 253.45L68.1287 249.858L71.499 247.769C73.3459 246.592 74.9256 245.764 75.0682 245.878C75.1814 246.019 75.408 247.81 75.5431 249.844C76.2579 259.469 77.2298 264.712 79.3805 270.404C80.8153 274.153 84.3522 280.053 84.8831 279.549C85.001 279.443 85.3102 278.41 85.5931 277.239C85.9045 276.097 86.2411 275.147 86.3569 275.151C86.4727 275.154 87.0116 275.747 87.548 276.477C89.0151 278.526 93.3627 282.916 95.5328 284.548C100.388 288.157 105.382 290.536 110.974 291.892C114.982 292.841 122.766 293.168 126.602 292.52C138.079 290.548 147.727 284.239 154.139 274.482C160.85 264.239 162.385 252.078 158.44 240.212C156.524 234.363 153.093 228.987 148.203 224.142C143.4 219.382 138.764 216.438 132.866 214.359C128.32 212.79 125.867 212.329 120.599 212.163C115.534 212.004 113.096 212.284 108.73 213.437C107.536 213.756 106.461 213.969 106.404 213.885C106.262 213.743 109.71 207.569 110.452 206.632C110.689 206.365 111.851 206.154 114.288 205.957C117.246 205.72 118.057 205.746 119.325 206.087C126.384 207.983 141.578 211.588 141.755 211.429C141.991 211.189 143.698 200.625 143.724 199.254C143.732 198.87 143.172 197.838 142.466 196.91C141.788 196.011 141.196 195.114 141.199 194.977C141.202 194.813 141.675 194.334 142.233 193.912L143.262 193.121L143.898 176.405L144.563 159.69L142.537 156.609C141.439 154.928 140.57 153.419 140.631 153.256C140.692 153.121 141.57 152.6 142.564 152.11L144.434 151.236L144.389 142.976C144.359 138.448 144.316 130.024 144.281 124.289C144.216 118.553 144.215 112.489 144.247 110.844C144.275 107.827 144.275 107.827 143.713 108.441C143.417 108.788 141.125 112.063 138.621 115.771C136.148 119.452 133.977 122.429 133.804 122.369C133.344 122.217 132.06 118.116 130.722 112.34C130.024 109.465 128.923 104.903 128.25 102.248C127.576 99.5931 127.045 97.0523 127.024 96.6401C127.009 95.9263 127.213 95.823 129.955 94.8116C139.434 91.2958 147.496 84.6627 152.639 76.1545C156.406 69.9625 158.053 65.5971 159.012 59.3169C160.37 50.3606 158.889 41.3974 154.807 33.7242C150.333 25.3254 145.201 19.5124 138.25 14.9592C133.844 12.1046 129.047 10.0333 123.6 8.6276C119.104 7.49865 111.755 7.07574 106.965 7.69345C98.0227 8.86662 89.8722 12.5613 83.1557 18.5234C81.5945 19.9011 79.4683 22.0566 78.4597 23.3144C77.4222 24.5713 76.4756 25.6115 76.3588 25.6627C76.213 25.713 74.1802 22.9604 71.8119 19.5663L67.4692 13.3939L65.8804 13.1794C63.8585 12.8964 61.4767 13.2606 59.8971 14.0889C57.557 15.3049 56.0076 17.5882 54.1467 22.5506L53.2004 25.0998L60.6631 36.2538L68.1258 47.4078L68.0711 50.2868C68.0085 53.5772 68.3381 57.5657 68.9186 60.5471C69.7093 64.6599 70.5328 67.0453 73.0319 72.6933C73.143 72.9437 67.2145 80.1103 65.7701 81.4367C65.2687 81.9148 65.1261 81.8006 62.258 78.8022C60.611 77.0769 59.1899 75.6605 59.0741 75.6568C58.9873 75.6541 58.8895 76.2272 58.8759 76.9401C58.8535 78.1191 58.823 78.2005 58.4561 77.6951C58.2592 77.3871 56.8657 74.5174 55.3916 71.316C53.9175 68.1145 49.5029 59.6353 45.5841 52.4886L38.4463 39.4792L30.5192 29.9019C26.1304 24.6335 22.3074 20.0687 21.9947 19.7571L21.3973 19.1896L21.315 29.6127L21.2616 40.0367L23.6812 45.2982C25.0169 48.166 26.0714 50.5861 26.0124 50.6391C25.954 50.6647 24.7191 48.5956 23.2625 45.9983C20.7698 41.5303 19.6371 40.1778 19.9795 41.9718C20.058 42.4133 21.6046 50.9396 23.4125 60.9557C25.2204 70.9717 26.7696 79.3609 26.8518 79.6104C26.9334 79.8874 27.8234 80.2994 29.3501 80.7315C30.6463 81.1014 33.2631 82.089 35.1298 82.9159C38.1166 84.2444 38.6639 84.3987 39.3927 84.1473C40.1794 83.8976 40.2652 83.9552 41.4238 85.4731C42.1017 86.3724 42.7229 87.215 42.8355 87.3831C42.9476 87.5787 43.4924 90.9156 44.0551 94.8292C44.6463 98.7711 45.6727 105.717 46.3682 110.266C47.4788 117.352 47.6475 119.141 47.587 122.321C47.5479 124.378 47.4004 126.047 47.2556 126.042C47.1109 126.038 46.2773 125.71 45.3873 125.298C44.4973 124.885 43.5769 124.555 43.3164 124.547C42.7085 124.527 36.6509 127.822 32.6645 130.33C28.4134 133.05 23.9656 136.971 22.8551 139.021C22.4053 139.83 21.7946 141.484 21.5117 142.655C20.8796 145.434 21.167 148.598 22.6542 154.159C23.2213 156.317 23.9919 159.963 24.3833 162.225C25.9159 171.492 28.7772 183.983 30.667 189.694C31.8185 193.105 32.7724 194.726 34.1466 195.565C35.2055 196.229 37.7675 197.05 38.2627 196.901C38.7289 196.751 38.7096 197.766 38.2525 202.004C37.9735 204.492 37.9895 208.224 38.34 220.252C38.8755 239.309 38.996 242.111 39.1407 242.116C39.2276 242.119 39.6664 241.885 40.1358 241.571C41.1908 240.918 41.2414 241.304 40.2111 242.177L39.4461 242.811L35.8221 241.49C33.8085 240.769 31.9112 240.023 31.5965 239.821C31.2817 239.619 29.2913 236.155 27.1961 232.111L23.3974 224.748L22.4492 219.78L21.501 214.812L20.3052 213.731C19.6215 213.134 17.9672 211.792 16.5972 210.734L14.114 208.818L11.7935 204.438C10.5074 202.01 9.4156 200.028 9.32877 200.025C9.21299 200.022 6.71888 204.772 1.36352 215.304L0.371882 217.193L16.133 236.674ZM10.639 228.6C10.6969 228.602 10.9243 228.828 11.1222 229.081C11.4902 229.532 11.4607 229.558 11.0044 229.187C10.548 228.816 10.4075 228.593 10.639 228.6ZM12.2565 230.352C14.2845 231.842 20.7849 238.768 26.6492 245.647C28.5478 247.846 28.7715 248.265 29.1986 250.171C29.5999 251.913 29.8795 252.443 30.7332 253.238C31.3027 253.749 31.7543 254.367 31.7497 254.614C31.7444 254.888 30.128 253.081 28.1183 250.631C22.1477 243.256 11.3971 229.858 11.3697 229.775C11.3707 229.72 11.7713 229.98 12.2565 230.352ZM70.5751 86.142L71.1376 85.5012L70.8589 86.4527C70.6753 86.9682 70.5506 87.4308 70.5496 87.4856C70.5486 87.5404 70.4049 87.481 70.2617 87.3942C69.8323 87.1338 69.9248 86.8349 70.5751 86.142ZM76.1149 85.7125L77.9796 80.5582L80.7045 83.4697C83.1747 86.0715 83.5121 86.6033 84.0871 88.3499C84.443 89.4311 86.9326 97.109 89.6421 105.398C92.3228 113.685 94.5096 120.53 94.4512 120.556C94.3922 120.609 93.0877 120.678 91.5515 120.739C89.8128 120.794 88.7382 120.953 88.7346 121.145C88.7314 121.309 89.1122 122.611 89.5487 124.024C90.2859 126.379 90.3534 127.396 89.7745 127.378C89.6587 127.374 89.356 126.542 89.0864 125.491C86.3653 114.76 81.7886 104.136 76.4663 96.1766C74.3817 93.0932 73.9622 92.3118 74.0905 91.6574C74.1856 91.2214 75.1056 88.5341 76.1149 85.7125ZM79.9312 157.66C80.0774 157.582 80.2201 157.696 80.2159 157.916C80.2117 158.135 80.0618 158.405 79.9155 158.482C79.7403 158.559 79.6266 158.446 79.6308 158.227C79.6349 158.007 79.7559 157.737 79.9312 157.66ZM88.1848 37.3379C88.754 36.3407 89.5874 35.1597 90.0309 34.6797L90.8291 33.8269L93.1212 35.1335C94.3527 35.8581 96.0732 36.7627 96.8774 37.1171C98.3142 37.711 98.4563 37.8526 99.2618 39.6613C100.094 41.5805 100.094 41.5805 99.5591 42.3045C97.9265 44.3932 96.1927 48.7559 96.1521 50.8947C96.1396 51.5527 95.9602 51.8489 95.435 52.0519C94.6762 52.3573 95.1573 52.9485 89.5191 44.8424C86.136 39.9897 86.2687 40.6249 88.1848 37.3379ZM98.1339 27.3894C100.946 25.7219 103.806 24.5497 106.686 23.8994C108.78 23.4164 113.451 23.0144 113.59 23.2932C113.647 23.3773 113.779 24.0125 113.882 24.7016C113.985 25.3907 114.355 27.268 114.729 28.8985L115.368 31.8268L114.469 33.4447C113.539 35.1165 113.158 35.3789 111.826 35.337C110.09 35.2825 107.116 36.3414 103.515 38.3408C102.901 38.6782 102.67 38.6435 101.434 38.1382C100.055 37.5462 99.9697 37.4612 98.1251 33.9463C97.0912 31.9659 96.111 30.2066 95.9688 30.065C95.2867 29.3851 95.7907 28.7699 98.1339 27.3894ZM95.0699 244.915C95.7199 242.714 98.1288 237.878 99.2242 236.623L99.7866 235.982L101.505 236.997C102.45 237.575 103.97 238.363 104.946 238.806C106.381 239.482 106.752 239.795 107.253 240.854C107.588 241.523 107.864 242.217 107.861 242.382C107.858 242.546 107.255 243.789 106.505 245.138C105.545 246.891 105.027 248.246 104.767 249.72L104.38 251.82L103.036 252.464L101.691 253.107L99.2697 252.51C97.9145 252.193 96.1836 251.837 95.4042 251.703L93.9896 251.466L94.2039 249.333C94.3426 248.13 94.7275 246.167 95.0699 244.915ZM95.4483 256.999C95.9724 256.851 97.6358 256.19 99.1829 255.553C101.782 254.427 102.072 254.381 103.197 254.636C104.321 254.918 104.464 255.033 104.733 256.084C105.378 258.738 105.933 259.99 107.2 261.895C107.961 263.017 108.837 264.169 109.15 264.453C110.232 265.42 109.896 266.342 108.016 267.765C107.104 268.477 105.604 269.692 104.692 270.459L103.014 271.86L102.16 271.12C99.3658 268.783 96.0252 263.218 94.9725 259.179C94.4306 257.214 94.429 257.296 95.4483 256.999ZM107.507 70.5938C107.288 69.9284 107.23 69.9266 109.304 70.5131C111.263 71.0684 115.313 71.278 117.348 70.9029C118.568 70.6944 118.829 70.7025 119.111 71.0681C119.28 71.3203 119.472 73.4389 119.539 76.02C119.578 78.5179 119.709 80.7443 119.792 80.9664C120.124 81.7999 113.86 82.2342 109.99 81.6736C108.604 81.438 107.276 81.2043 107.017 81.1138C106.5 80.9055 104.042 77.6457 104.052 77.1522C104.055 76.9602 104.908 76.3011 105.962 75.7032C107.865 74.5832 108.25 74.1838 107.439 74.1583C106.6 74.1319 103.211 75.6442 102.999 76.1314C102.785 76.7283 101.728 77.5181 101.177 77.5283C100.946 77.521 102.334 76.0831 104.221 74.3316C106.992 71.7848 107.643 71.037 107.507 70.5938ZM111.831 97.5346L117.995 97.7831L118.501 98.6221C119.231 99.8248 120.736 104.454 122.003 109.405C122.757 112.391 124.02 116.025 126.039 121.027C128.886 128.168 128.97 128.335 129.78 128.36L130.591 128.386L130.546 130.771C130.52 132.115 130.381 133.345 130.232 133.56C130.054 133.801 128.681 131.371 125.725 125.38C123.381 120.669 121.37 116.765 121.227 116.706C120.912 116.504 119.666 118.056 119.033 119.38C118.67 120.192 118.493 120.351 118.325 120.044C118.185 119.82 117.862 116.957 117.577 113.71C117.291 110.464 116.999 107.519 116.948 107.161C116.814 106.608 116.641 106.548 114.934 106.494L113.052 106.435L112.994 107.997C112.973 109.094 112.691 110.182 112.087 111.48C111.605 112.508 111.215 113.209 111.219 112.989C111.194 112.769 111.758 110.537 112.443 108.034C113.128 105.504 113.692 103.245 113.697 102.971C113.704 102.642 112.361 101.639 109.7 99.9369C107.497 98.5233 105.695 97.3692 105.695 97.3418C105.696 97.3144 108.474 97.4017 111.831 97.5346ZM107.145 120.077C107.879 119.551 108.552 119.188 108.638 119.273C108.837 119.472 107.887 122.185 107.504 122.557C107.238 122.823 105.811 121.709 105.819 121.27C105.822 121.16 106.411 120.63 107.145 120.077ZM106.089 230.474C109.839 228.205 113.743 226.983 117.772 226.835C119.946 226.739 120.003 226.768 120.136 227.403C120.187 227.761 120.53 229.528 120.844 231.294L121.449 234.523L120.818 235.71C120.188 236.87 120.129 236.896 118.242 237.138C116.181 237.403 113.177 238.488 111.593 239.563L110.625 240.219L109.16 239.542C107.754 238.866 107.641 238.726 105.908 235.406C104.902 233.509 104.151 231.867 104.212 231.732C104.272 231.624 105.122 231.074 106.089 230.474ZM113.09 115.106C113.243 114.672 113.355 114.895 113.479 115.968C113.804 118.667 114.193 128.694 113.987 128.879C113.869 128.985 113.098 128.385 112.245 127.563L110.738 126.089L111.793 120.881C112.398 118.02 112.968 115.431 113.09 115.106ZM109.752 270.865C110.281 268.961 110.951 267.226 111.216 266.987C111.629 266.616 111.802 266.649 113.064 267.292C115.416 268.491 117.433 269.021 120.241 269.109C121.659 269.154 123.254 269.067 123.777 268.946C124.418 268.774 124.793 268.813 124.963 269.038C125.104 269.234 125.238 271.296 125.252 273.629L125.287 277.855L124.27 278.07C123.717 278.19 121.544 278.231 119.489 278.167C115.494 278.069 113.014 277.552 109.826 276.135C108.562 275.574 108.363 275.403 108.546 274.915C108.639 274.589 109.194 272.795 109.752 270.865ZM112.556 184.337C112.643 184.34 113.814 185.2 115.213 186.259C121.608 191.124 125.031 193.838 124.884 193.971C124.825 194.051 122.727 193.162 120.287 192.015C117.818 190.868 115.722 189.924 115.606 189.92C115.462 189.916 115.394 190.435 115.44 191.068C115.514 191.728 115.448 192.165 115.363 192.08C115.248 191.994 114.583 190.41 113.836 188.603C112.59 185.601 112.208 184.326 112.556 184.337ZM117.918 30.2607C118.549 29.0459 119.454 27.1538 119.908 26.0981L120.727 24.1484L122.081 24.5476C126.373 25.7525 130.411 28.1839 134.165 31.8137L136.837 34.4218L135.36 35.9666C134.532 36.846 133.23 38.3141 132.43 39.2766C130.682 41.3617 130.682 41.3617 129.143 41.5329C127.953 41.6601 127.839 41.6017 126.244 40.1523C124.338 38.3914 122.304 37.2026 119.628 36.268C117.787 35.634 117.73 35.5774 117.263 34.2458C117.016 33.4973 116.798 32.8045 116.771 32.6939C116.773 32.6117 117.286 31.5029 117.918 30.2607ZM121.216 70.0368C121.335 69.8759 122.068 69.4325 122.828 69.0174C125.841 67.4659 128.35 64.9658 130.18 61.6212C131.68 58.8973 131.825 58.9018 135.677 61.9311C137.332 63.2451 139.045 64.561 139.502 64.9045L140.301 65.5058L139.728 66.695C138.103 69.9088 134.492 74.0205 131.145 76.412C129.265 77.7797 126.953 79.0514 126.783 78.8266C126.727 78.7699 126.136 77.846 125.432 76.7813C124.729 75.6892 123.43 73.9199 122.553 72.8498C120.94 70.8512 120.801 70.5724 121.216 70.0368ZM124.285 231.594C125.098 229.919 125.794 228.377 125.797 228.185C125.809 227.581 126.389 227.545 127.914 228.059C131.77 229.36 136.89 232.758 139.153 235.545L140.173 236.785L139.049 238.011C138.398 238.704 137.333 239.905 136.651 240.735C135.081 242.578 135.316 242.394 134.037 242.628C133.02 242.815 132.848 242.755 131.765 241.788C129.859 240 127.884 238.786 125.612 237.946C123.512 237.167 123.455 237.137 123.159 235.948C122.969 235.284 122.835 234.731 122.806 234.703C122.777 234.702 123.441 233.296 124.285 231.594ZM130.966 43.154C131.645 42.462 132.258 42.2343 134.264 41.8309C135.63 41.5721 137.521 41.1376 138.482 40.866C139.413 40.5935 140.285 40.4288 140.4 40.5147C140.801 40.7468 142.306 45.3759 142.724 47.7485C143.197 50.2875 143.255 54.8711 142.829 57.4642L142.597 58.9933L137.911 58.7089C133.629 58.4646 133.167 58.3953 132.57 57.8278C131.943 57.2868 131.917 57.0939 132.122 55.4542C132.429 53.0495 131.947 49.4402 130.979 47.0503C129.983 44.5772 129.991 44.166 130.966 43.154ZM128.358 267.169C130.847 265.738 133.238 263.344 134.589 260.863C135.369 259.433 135.843 258.872 136.248 258.885C136.537 258.894 138.168 259.96 139.852 261.248C142.336 263.136 142.933 263.731 142.866 264.223C142.726 265.453 139.961 269.235 137.574 271.41C135.333 273.479 132.399 275.5 131.675 275.477C131.502 275.471 130.906 274.794 130.371 273.982C129.807 273.196 128.735 271.708 127.943 270.695C127.123 269.682 126.475 268.729 126.478 268.564C126.481 268.4 127.333 267.768 128.358 267.169ZM131.902 127.988C132.28 127.918 132.743 127.905 132.916 127.965C133.088 128.025 134.151 130.007 135.294 132.375C137.688 137.443 138.353 139.028 137.927 138.603C137.5 138.178 131.167 128.569 131.171 128.349C131.173 128.24 131.494 128.085 131.902 127.988ZM135.104 244.417C135.669 243.667 136.135 243.489 138.957 242.837C140.731 242.454 142.418 242.041 142.681 241.939C143.089 241.787 143.317 242.014 143.76 243.07C145.286 246.603 146.012 252.579 145.415 256.539L145.184 258.068L141.363 257.948C136.327 257.79 136.126 257.674 136.439 254.94C136.716 252.534 136.174 249.06 135.2 246.999C134.337 245.161 134.332 245.436 135.104 244.417Z" fill="#F6F6F6"/>
</g>
<defs>
<clipPath id="clip0_227_49">
<rect width="166" height="299" fill="white"/>
</clipPath>
</defs>
</svg>
